<svg width="1035" height="605" viewBox="0 0 1035 605" fill="none" xmlns="http://www.w3.org/2000/svg">
<rect width="1035" height="605" fill="url(#paint0_linear_813_70530)"/>
<path d="M63.12 217.844H77.04V275.06H110.256V288.5H63.12V217.844ZM118.331 253.268C118.331 248.404 119.259 243.796 121.115 239.444C122.971 235.092 125.531 231.252 128.795 227.924C132.123 224.532 135.963 221.876 140.315 219.956C144.667 218.036 149.339 217.076 154.331 217.076C159.259 217.076 163.899 218.036 168.251 219.956C172.603 221.876 176.443 224.532 179.771 227.924C183.163 231.252 185.787 235.092 187.643 239.444C189.563 243.796 190.523 248.404 190.523 253.268C190.523 258.26 189.563 262.932 187.643 267.284C185.787 271.636 183.163 275.476 179.771 278.804C176.443 282.068 172.603 284.628 168.251 286.484C163.899 288.34 159.259 289.268 154.331 289.268C149.339 289.268 144.667 288.34 140.315 286.484C135.963 284.628 132.123 282.068 128.795 278.804C125.531 275.476 122.971 271.636 121.115 267.284C119.259 262.932 118.331 258.26 118.331 253.268ZM132.731 253.268C132.731 256.404 133.275 259.348 134.363 262.1C135.515 264.788 137.083 267.188 139.067 269.3C141.115 271.348 143.451 272.948 146.075 274.1C148.763 275.252 151.675 275.828 154.811 275.828C157.819 275.828 160.603 275.252 163.163 274.1C165.787 272.948 168.059 271.348 169.979 269.3C171.899 267.188 173.403 264.788 174.491 262.1C175.579 259.348 176.123 256.404 176.123 253.268C176.123 250.068 175.547 247.092 174.395 244.34C173.307 241.588 171.771 239.188 169.787 237.14C167.867 235.028 165.595 233.396 162.971 232.244C160.347 231.092 157.499 230.516 154.427 230.516C151.355 230.516 148.507 231.092 145.883 232.244C143.259 233.396 140.955 235.028 138.971 237.14C136.987 239.188 135.451 241.588 134.363 244.34C133.275 247.092 132.731 250.068 132.731 253.268ZM216.881 262.388C216.881 264.628 217.553 266.772 218.897 268.82C220.241 270.868 222.001 272.532 224.177 273.812C226.417 275.092 228.849 275.732 231.473 275.732C234.353 275.732 236.913 275.092 239.153 273.812C241.393 272.532 243.153 270.868 244.433 268.82C245.777 266.772 246.449 264.628 246.449 262.388V217.844H260.177V262.676C260.177 267.86 258.897 272.468 256.337 276.5C253.777 280.468 250.321 283.604 245.969 285.908C241.617 288.148 236.785 289.268 231.473 289.268C226.225 289.268 221.425 288.148 217.073 285.908C212.785 283.604 209.361 280.468 206.801 276.5C204.241 272.468 202.961 267.86 202.961 262.676V217.844H216.881V262.388ZM276.964 217.844H290.884V288.5H276.964V217.844ZM346.848 234.932C344.16 233.46 341.408 232.244 338.592 231.284C335.84 230.324 333.248 229.844 330.816 229.844C327.808 229.844 325.44 230.452 323.712 231.668C321.984 232.884 321.12 234.708 321.12 237.14C321.12 238.804 321.76 240.308 323.04 241.652C324.384 242.932 326.08 244.084 328.128 245.108C330.24 246.132 332.416 247.06 334.656 247.892C336.704 248.66 338.72 249.588 340.704 250.676C342.752 251.7 344.576 253.012 346.176 254.612C347.776 256.148 349.056 258.1 350.016 260.468C350.976 262.772 351.456 265.62 351.456 269.012C351.456 272.596 350.528 275.924 348.672 278.996C346.816 282.068 344.096 284.564 340.512 286.484C336.928 288.34 332.512 289.268 327.264 289.268C324.576 289.268 321.824 289.012 319.008 288.5C316.256 287.924 313.536 287.092 310.848 286.004C308.16 284.852 305.568 283.412 303.072 281.684L309.216 270.836C310.88 272.052 312.672 273.14 314.592 274.1C316.576 274.996 318.56 275.7 320.544 276.212C322.528 276.724 324.352 276.98 326.016 276.98C327.68 276.98 329.344 276.756 331.008 276.308C332.736 275.796 334.144 274.964 335.232 273.812C336.384 272.66 336.96 271.06 336.96 269.012C336.96 267.604 336.48 266.324 335.52 265.172C334.624 264.02 333.376 262.964 331.776 262.004C330.24 261.044 328.544 260.212 326.688 259.508C324.512 258.676 322.272 257.716 319.968 256.628C317.664 255.54 315.488 254.228 313.44 252.692C311.456 251.092 309.824 249.14 308.544 246.836C307.328 244.468 306.72 241.588 306.72 238.196C306.72 234.1 307.616 230.548 309.408 227.54C311.264 224.532 313.856 222.164 317.184 220.436C320.512 218.644 324.352 217.652 328.704 217.46C334.4 217.46 339.008 218.132 342.528 219.476C346.112 220.82 349.312 222.42 352.128 224.276L346.848 234.932ZM116.112 378.644C115.344 379.284 113.904 380.148 111.792 381.236C109.744 382.324 107.216 383.284 104.208 384.116C101.2 384.948 97.872 385.332 94.224 385.268C88.656 385.14 83.664 384.148 79.248 382.292C74.896 380.372 71.184 377.78 68.112 374.516C65.104 371.252 62.8 367.508 61.2 363.284C59.6 359.06 58.8 354.548 58.8 349.748C58.8 344.372 59.6 339.444 61.2 334.964C62.864 330.484 65.2 326.612 68.208 323.348C71.28 320.084 74.928 317.556 79.152 315.764C83.376 313.972 88.048 313.076 93.168 313.076C97.904 313.076 102.096 313.716 105.744 314.996C109.392 316.276 112.368 317.652 114.672 319.124L109.2 332.276C107.6 331.06 105.456 329.812 102.768 328.532C100.144 327.188 97.104 326.516 93.648 326.516C90.96 326.516 88.368 327.092 85.872 328.244C83.44 329.332 81.264 330.9 79.344 332.948C77.488 334.996 76.016 337.396 74.928 340.148C73.84 342.836 73.296 345.78 73.296 348.98C73.296 352.372 73.776 355.476 74.736 358.292C75.76 361.108 77.2 363.54 79.056 365.588C80.912 367.572 83.12 369.108 85.68 370.196C88.304 371.284 91.248 371.828 94.512 371.828C98.288 371.828 101.52 371.22 104.208 370.004C106.896 368.788 108.944 367.508 110.352 366.164L116.112 378.644ZM125.738 349.268C125.738 344.404 126.666 339.796 128.522 335.444C130.378 331.092 132.938 327.252 136.202 323.924C139.53 320.532 143.37 317.876 147.722 315.956C152.074 314.036 156.746 313.076 161.738 313.076C166.666 313.076 171.306 314.036 175.658 315.956C180.01 317.876 183.85 320.532 187.178 323.924C190.57 327.252 193.194 331.092 195.05 335.444C196.97 339.796 197.93 344.404 197.93 349.268C197.93 354.26 196.97 358.932 195.05 363.284C193.194 367.636 190.57 371.476 187.178 374.804C183.85 378.068 180.01 380.628 175.658 382.484C171.306 384.34 166.666 385.268 161.738 385.268C156.746 385.268 152.074 384.34 147.722 382.484C143.37 380.628 139.53 378.068 136.202 374.804C132.938 371.476 130.378 367.636 128.522 363.284C126.666 358.932 125.738 354.26 125.738 349.268ZM140.138 349.268C140.138 352.404 140.682 355.348 141.77 358.1C142.922 360.788 144.49 363.188 146.474 365.3C148.522 367.348 150.858 368.948 153.482 370.1C156.17 371.252 159.082 371.828 162.218 371.828C165.226 371.828 168.01 371.252 170.57 370.1C173.194 368.948 175.466 367.348 177.385 365.3C179.306 363.188 180.81 360.788 181.898 358.1C182.986 355.348 183.53 352.404 183.53 349.268C183.53 346.068 182.954 343.092 181.802 340.34C180.714 337.588 179.178 335.188 177.194 333.14C175.274 331.028 173.002 329.396 170.378 328.244C167.754 327.092 164.906 326.516 161.834 326.516C158.762 326.516 155.914 327.092 153.29 328.244C150.666 329.396 148.362 331.028 146.378 333.14C144.394 335.188 142.858 337.588 141.77 340.34C140.682 343.092 140.138 346.068 140.138 349.268ZM264.8 378.644C264.032 379.284 262.592 380.148 260.48 381.236C258.432 382.324 255.904 383.284 252.896 384.116C249.888 384.948 246.56 385.332 242.912 385.268C237.344 385.14 232.352 384.148 227.936 382.292C223.584 380.372 219.872 377.78 216.799 374.516C213.792 371.252 211.488 367.508 209.888 363.284C208.288 359.06 207.488 354.548 207.488 349.748C207.488 344.372 208.288 339.444 209.888 334.964C211.552 330.484 213.888 326.612 216.896 323.348C219.968 320.084 223.616 317.556 227.84 315.764C232.064 313.972 236.736 313.076 241.856 313.076C246.592 313.076 250.784 313.716 254.432 314.996C258.08 316.276 261.056 317.652 263.36 319.124L257.888 332.276C256.288 331.06 254.144 329.812 251.456 328.532C248.832 327.188 245.792 326.516 242.336 326.516C239.648 326.516 237.056 327.092 234.56 328.244C232.128 329.332 229.951 330.9 228.031 332.948C226.176 334.996 224.704 337.396 223.616 340.148C222.528 342.836 221.984 345.78 221.984 348.98C221.984 352.372 222.464 355.476 223.424 358.292C224.448 361.108 225.888 363.54 227.744 365.588C229.6 367.572 231.808 369.108 234.368 370.196C236.992 371.284 239.936 371.828 243.2 371.828C246.976 371.828 250.208 371.22 252.896 370.004C255.583 368.788 257.632 367.508 259.04 366.164L264.8 378.644ZM338.169 313.844V384.5H324.249V355.796H292.665V384.5H278.745V313.844H292.665V342.356H324.249V313.844H338.169ZM356.37 313.844H404.562V327.284H370.29V342.356H400.626V355.796H370.29V371.06H405.906V384.5H356.37V313.844ZM415.508 313.844H463.124V327.284H445.94V384.5H432.02V327.284H415.508V313.844Z" fill="white"/>
<path d="M575.894 193.684C575.894 194.231 575.731 194.765 575.426 195.22C575.121 195.674 574.687 196.028 574.179 196.237C573.672 196.445 573.114 196.499 572.576 196.392C572.038 196.285 571.543 196.02 571.156 195.633C570.769 195.246 570.505 194.753 570.4 194.216C570.294 193.68 570.35 193.124 570.562 192.62C570.773 192.115 571.13 191.685 571.588 191.383C572.045 191.08 572.583 190.92 573.131 190.922C573.495 190.922 573.855 190.994 574.191 191.133C574.527 191.272 574.832 191.475 575.089 191.732C575.345 191.988 575.548 192.293 575.687 192.628C575.825 192.963 575.895 193.322 575.894 193.684Z" fill="#FC5037"/>
<path d="M655.322 186.886C655.322 187.432 655.159 187.966 654.854 188.421C654.55 188.875 654.116 189.229 653.61 189.438C653.103 189.647 652.545 189.701 652.007 189.595C651.47 189.488 650.975 189.225 650.588 188.839C650.2 188.453 649.936 187.961 649.829 187.425C649.722 186.889 649.777 186.334 649.986 185.829C650.196 185.325 650.552 184.893 651.008 184.59C651.464 184.286 652 184.125 652.548 184.125C653.283 184.127 653.987 184.419 654.506 184.936C655.026 185.454 655.319 186.155 655.322 186.886Z" fill="#FC5037"/>
<path d="M573.665 191.602H572.598V168.839C572.598 158.589 579.307 150.262 587.53 150.262H612.915C621.17 150.262 627.847 158.589 627.847 168.839V179.536C627.847 183.296 630.247 186.355 633.18 186.355H652.197V187.417H633.265C629.735 187.417 626.866 183.88 626.866 179.536V168.839C626.866 159.184 620.626 151.324 613 151.324H587.616C579.947 151.324 573.75 159.184 573.75 168.839L573.665 191.602Z" fill="#FC5037"/>
<path d="M734.728 140.766C734.728 141.312 734.565 141.846 734.261 142.3C733.956 142.754 733.523 143.108 733.016 143.317C732.509 143.526 731.952 143.581 731.414 143.474C730.876 143.368 730.382 143.105 729.994 142.718C729.606 142.332 729.342 141.84 729.235 141.304C729.128 140.769 729.183 140.213 729.393 139.709C729.603 139.204 729.958 138.773 730.414 138.469C730.87 138.166 731.407 138.004 731.955 138.004C732.69 138.004 733.396 138.295 733.916 138.813C734.436 139.331 734.728 140.033 734.728 140.766Z" fill="#FC5037"/>
<path d="M882.385 199.229C882.387 199.776 882.226 200.311 881.922 200.766C881.619 201.222 881.187 201.578 880.68 201.788C880.174 201.999 879.616 202.055 879.077 201.95C878.538 201.844 878.043 201.582 877.654 201.196C877.266 200.811 877 200.318 876.892 199.782C876.785 199.246 876.839 198.691 877.048 198.185C877.258 197.68 877.613 197.248 878.07 196.944C878.526 196.64 879.063 196.478 879.611 196.478C880.345 196.478 881.049 196.768 881.569 197.283C882.088 197.799 882.382 198.499 882.385 199.229Z" fill="#FC5037"/>
<path d="M880.145 199.229H879.078V136.103C879.07 130.26 876.735 124.659 872.587 120.527C868.438 116.395 862.814 114.071 856.947 114.062H754.62C748.753 114.071 743.128 116.395 738.98 120.527C734.831 124.659 732.497 130.26 732.488 136.103V140.766H731.422V136.103C731.427 129.977 733.873 124.104 738.223 119.773C742.572 115.441 748.469 113.006 754.62 113H856.947C863.098 113.006 868.995 115.441 873.344 119.773C877.693 124.104 880.139 129.977 880.145 136.103V199.229Z" fill="#FC5037"/>
<path d="M935.66 199.718L915.011 199.622C914.337 199.634 913.673 199.779 913.055 200.047C912.437 200.316 911.879 200.702 911.411 201.186C910.944 201.669 910.577 202.239 910.33 202.864C910.084 203.489 909.964 204.156 909.977 204.827V208.555C909.99 209.226 909.869 209.893 909.623 210.518C909.377 211.142 909.01 211.713 908.542 212.196C908.075 212.679 907.516 213.066 906.899 213.335C906.281 213.603 905.616 213.747 904.943 213.76L864.679 213.569C864.006 213.551 863.342 213.401 862.726 213.127C862.111 212.854 861.555 212.462 861.092 211.975C860.628 211.488 860.266 210.914 860.025 210.287C859.784 209.66 859.669 208.992 859.688 208.321V204.593C859.722 203.239 859.216 201.926 858.281 200.942C857.345 199.959 856.056 199.385 854.696 199.346H847.433L829.301 199.261C824.989 199.244 820.847 200.933 817.785 203.956C814.723 206.98 812.992 211.091 812.972 215.385L811.905 474.996C811.891 479.286 813.587 483.407 816.62 486.454C819.654 489.501 823.777 491.225 828.085 491.247L934.38 491.662C936.515 491.671 938.63 491.262 940.606 490.458C942.582 489.653 944.379 488.469 945.896 486.973C947.412 485.477 948.618 483.698 949.443 481.737C950.269 479.777 950.7 477.674 950.709 475.548L951.776 215.937C951.785 211.662 950.095 207.558 947.075 204.519C944.056 201.48 939.952 199.754 935.66 199.718Z" fill="#FAFAFA"/>
<path d="M950.741 209.84C949.396 206.56 947.015 203.804 943.958 201.99C942.103 200.86 940.026 200.135 937.868 199.866C937.324 199.783 936.775 199.741 936.225 199.739H935.66H936.215C936.765 199.754 937.314 199.808 937.857 199.898C940 200.175 942.061 200.899 943.905 202.022C946.927 203.836 949.274 206.58 950.592 209.84C952.309 213.706 951.584 218.635 951.659 223.988C951.541 245.562 951.381 276.758 951.179 315.337C950.976 353.916 950.784 399.803 950.549 450.778C950.549 457.151 950.521 463.602 950.464 470.131V475.038C950.494 476.663 950.286 478.284 949.846 479.85C949.392 481.416 948.705 482.905 947.808 484.269C946.888 485.626 945.774 486.842 944.502 487.88C941.901 489.96 938.713 491.178 935.383 491.364C932.034 491.449 928.61 491.364 925.197 491.364L904.516 491.3L862.045 491.098L840.319 490.992H829.344C825.69 491.186 822.074 490.178 819.051 488.124C816.066 486.033 813.878 482.997 812.844 479.51C812.359 477.783 812.146 475.991 812.215 474.199C812.215 472.372 812.215 470.556 812.215 468.739C812.215 461.474 812.243 454.258 812.3 447.092C812.364 432.773 812.425 418.671 812.481 404.785C812.588 377.04 812.695 350.273 812.801 324.791C812.908 299.309 812.993 275.069 813.079 252.402C813.121 241.072 813.164 230.135 813.207 219.591C813.281 216.967 813.015 214.28 813.644 211.858C814.226 209.401 815.377 207.113 817.004 205.177C818.59 203.305 820.585 201.819 822.837 200.834C825.089 199.849 827.537 199.391 829.995 199.494L844.159 199.547H850.974H854.312C855.384 199.485 856.447 199.78 857.331 200.387C858.191 200.992 858.84 201.85 859.187 202.84C859.484 203.842 859.589 204.891 859.496 205.931C859.496 206.993 859.432 208.056 859.496 209.118C859.628 210.182 860.073 211.184 860.776 211.996C861.465 212.798 862.384 213.369 863.41 213.632C863.913 213.75 864.43 213.8 864.946 213.781H866.439H872.306L893.733 213.855H903.183C903.94 213.855 904.665 213.855 905.423 213.855C906.181 213.779 906.911 213.528 907.556 213.122C908.158 212.746 908.679 212.253 909.088 211.673C909.496 211.093 909.784 210.437 909.934 209.744C910.05 209.082 910.093 208.409 910.062 207.737C910.062 207.078 910.062 206.43 910.062 205.804C910.036 205.183 910.065 204.561 910.148 203.945C910.247 203.357 910.445 202.789 910.734 202.267C911.294 201.265 912.183 200.485 913.251 200.057C914.285 199.734 915.373 199.622 916.451 199.728H926.989H933.474C934.935 199.728 935.681 199.728 935.681 199.728H933.474L926.999 199.664L916.451 199.59C915.373 199.489 914.286 199.601 913.251 199.919C912.141 200.356 911.217 201.163 910.638 202.203C910.334 202.745 910.122 203.334 910.009 203.945C909.927 204.568 909.899 205.197 909.924 205.825C909.924 206.462 909.924 207.11 909.924 207.769C909.947 208.423 909.901 209.078 909.785 209.723C909.635 210.378 909.356 210.997 908.964 211.544C908.573 212.091 908.076 212.555 907.502 212.91C906.902 213.286 906.224 213.522 905.519 213.6C904.815 213.6 904.047 213.6 903.3 213.6L893.861 213.536L872.423 213.42H866.557C865.569 213.469 864.579 213.415 863.602 213.26C862.639 213.017 861.777 212.478 861.139 211.72C860.483 210.957 860.067 210.019 859.944 209.022C859.848 208.034 859.944 206.898 859.944 205.91C860.035 204.837 859.927 203.757 859.624 202.723C859.253 201.664 858.56 200.747 857.64 200.1C856.699 199.463 855.578 199.143 854.44 199.186H851.102H844.287L830.123 199.112C827.639 199.028 825.168 199.484 822.88 200.45C820.547 201.464 818.475 202.993 816.822 204.922C815.145 206.907 813.961 209.258 813.367 211.784C813.196 212.411 813.143 213.069 813.025 213.706C812.908 214.344 812.94 215.024 812.929 215.682C812.929 216.978 812.929 218.285 812.929 219.602C812.872 230.132 812.819 241.069 812.769 252.413C812.663 275.08 812.556 299.298 812.439 324.791C812.321 350.283 812.204 377.051 812.087 404.785C812.023 418.657 811.959 432.763 811.895 447.102C811.895 454.276 811.866 461.492 811.809 468.75V474.21C811.747 476.063 811.97 477.915 812.471 479.701C813.534 483.305 815.79 486.445 818.87 488.613C821.984 490.728 825.708 491.769 829.472 491.576H840.436L862.162 491.683L904.644 491.874L925.346 491.959C928.77 491.959 932.151 492.044 935.564 491.959C939.006 491.763 942.302 490.505 944.993 488.358C946.303 487.283 947.449 486.023 948.395 484.619C949.339 483.216 950.059 481.675 950.528 480.052C950.983 478.441 951.202 476.774 951.179 475.102C951.179 473.466 951.179 471.83 951.179 470.195C951.179 463.673 951.207 457.225 951.264 450.852C951.456 399.867 951.627 353.969 951.776 315.412C951.925 276.854 952 245.657 952.075 224.063C952.075 221.365 952.075 218.826 952.075 216.436C952.083 214.17 951.629 211.926 950.741 209.84Z" fill="#263238"/>
<path d="M932.013 492.363H928.813H925.186L829.301 491.927C825.457 492.127 821.654 491.063 818.476 488.9C815.301 486.69 812.98 483.468 811.895 479.765C811.377 477.942 811.15 476.05 811.223 474.157L812.386 215.629C812.386 215.12 812.386 214.567 812.46 214.079V213.643C812.46 213.378 812.546 213.154 812.578 212.931C812.634 212.495 812.716 212.062 812.823 211.636C813.435 209.057 814.644 206.656 816.353 204.625C818.016 202.663 820.109 201.107 822.47 200.076C824.831 199.045 827.398 198.566 829.973 198.677L854.291 198.804C855.512 198.752 856.717 199.095 857.726 199.781C858.712 200.482 859.457 201.469 859.859 202.607C860.153 203.504 860.269 204.449 860.2 205.39C860.2 205.57 860.2 205.762 860.2 205.942C860.2 206.314 860.2 206.686 860.2 207.068C860.162 207.715 860.162 208.365 860.2 209.012C860.298 209.928 860.67 210.794 861.267 211.497C861.854 212.187 862.639 212.68 863.517 212.91C864.153 213.033 864.801 213.079 865.448 213.048C865.768 213.048 866.077 213.048 866.397 213.048L903.13 213.261H903.93C904.388 213.287 904.847 213.287 905.306 213.261C905.947 213.192 906.563 212.978 907.108 212.634C907.647 212.305 908.113 211.871 908.48 211.358C908.846 210.845 909.105 210.264 909.241 209.649C909.344 209.128 909.387 208.597 909.369 208.067V205.4C909.352 204.888 909.388 204.376 909.476 203.871C909.593 203.223 909.817 202.599 910.137 202.023C910.787 200.886 911.818 200.014 913.049 199.558C913.923 199.248 914.854 199.129 915.779 199.208H916.419L933.484 199.335H935.692H936.258C936.392 199.346 936.528 199.346 936.663 199.335C937.099 199.339 937.534 199.378 937.964 199.452C940.167 199.715 942.29 200.439 944.193 201.577C947.323 203.435 949.76 206.257 951.136 209.617C951.991 211.758 952.404 214.048 952.352 216.352V223.978L951.968 336.369L951.446 475.07C951.473 476.782 951.25 478.489 950.784 480.137C950.321 481.796 949.601 483.372 948.651 484.811C947.679 486.245 946.504 487.533 945.163 488.635C942.411 490.843 939.03 492.133 935.5 492.32C934.295 492.352 933.154 492.363 932.013 492.363ZM925.506 490.993H928.813C930.946 490.993 933.218 490.993 935.383 490.993C938.627 490.815 941.734 489.63 944.267 487.604C945.496 486.585 946.573 485.398 947.467 484.078C948.344 482.749 949.013 481.295 949.451 479.765C949.879 478.238 950.084 476.656 950.059 475.07L951.275 224.053C951.275 222.661 951.275 221.291 951.275 219.974C951.35 216.309 951.424 212.846 950.208 210.063C948.925 206.881 946.638 204.201 943.692 202.426C941.896 201.317 939.887 200.593 937.793 200.302C937.407 200.226 937.014 200.183 936.62 200.174H936.162H935.639H933.442H916.377C916.163 200.174 915.939 200.174 915.705 200.174C914.914 200.104 914.117 200.206 913.369 200.472C912.38 200.863 911.558 201.584 911.044 202.511C910.776 202.994 910.592 203.518 910.5 204.062C910.427 204.508 910.399 204.96 910.414 205.411V208.056C910.438 208.662 910.388 209.268 910.265 209.862C910.109 210.607 909.802 211.313 909.364 211.938C908.926 212.562 908.365 213.092 907.716 213.494C907.035 213.922 906.266 214.191 905.466 214.28C904.954 214.28 904.463 214.28 903.983 214.28H903.194L865.053 214.132C864.5 214.15 863.948 214.093 863.41 213.962C862.306 213.677 861.316 213.061 860.573 212.198C859.821 211.329 859.346 210.257 859.208 209.118C859.147 208.412 859.129 207.702 859.155 206.994C859.155 206.622 859.155 206.261 859.155 205.932C859.155 205.73 859.155 205.539 859.155 205.347C859.213 204.547 859.119 203.744 858.878 202.979C858.556 202.059 857.951 201.263 857.15 200.706C856.341 200.148 855.369 199.875 854.387 199.93L830.048 199.845C827.675 199.764 825.313 200.199 823.126 201.12C820.91 202.088 818.942 203.54 817.366 205.369C815.778 207.258 814.657 209.492 814.092 211.89C813.716 213.685 813.572 215.52 813.665 217.35C813.665 218.072 813.665 218.805 813.665 219.538L812.652 474.136C812.587 475.895 812.795 477.655 813.271 479.351C814.268 482.758 816.406 485.723 819.329 487.753C822.276 489.756 825.803 490.738 829.365 490.547L925.261 490.993H925.506Z" fill="#263238"/>
<path d="M827.147 252.126C826.85 251.98 826.577 251.79 826.336 251.563C825.845 251.17 825.131 250.575 824.277 249.832C822.56 248.345 820.246 246.21 817.803 243.735L817.622 243.544L817.793 243.352L817.931 243.204C820.278 240.58 822.422 238.233 823.99 236.544C824.801 235.595 825.682 234.708 826.624 233.888C825.917 234.913 825.136 235.886 824.288 236.799C822.784 238.551 820.683 240.952 818.347 243.575L818.209 243.724V243.342C820.651 245.817 822.902 247.983 824.555 249.545C825.476 250.346 826.342 251.208 827.147 252.126Z" fill="#FC5037"/>
<path d="M837.002 256.492C836.799 252.862 836.782 249.225 836.949 245.594C836.923 241.958 837.09 238.324 837.45 234.706C837.653 238.336 837.671 241.973 837.503 245.604C837.529 249.24 837.362 252.874 837.002 256.492Z" fill="#FC5037"/>
<path d="M929.549 234.717C929.549 234.866 908.996 234.929 883.686 234.866C858.376 234.802 837.823 234.611 837.823 234.462C837.823 234.313 858.365 234.239 883.686 234.313C909.006 234.388 929.549 234.611 929.549 234.717Z" fill="#FC5037"/>
<path d="M930.039 251.988C929.673 249.124 929.498 246.239 929.517 243.352C929.332 240.477 929.332 237.592 929.517 234.717C929.871 237.578 930.046 240.459 930.039 243.342C930.217 246.221 930.217 249.109 930.039 251.988Z" fill="#FC5037"/>
<path d="M906.191 239.369C906.396 239.181 906.652 239.056 906.927 239.008C907.678 238.866 908.456 239.002 909.113 239.391C909.62 239.665 910.049 240.062 910.362 240.545C910.675 241.027 910.862 241.58 910.905 242.152C910.929 242.85 910.685 243.529 910.223 244.054C909.736 244.605 909.098 245.003 908.388 245.201C907.691 245.396 906.952 245.396 906.255 245.201C905.59 244.989 905.021 244.554 904.644 243.969C904.357 243.475 904.187 242.923 904.146 242.355C904.106 241.786 904.196 241.215 904.41 240.686C904.677 239.978 905.167 239.374 905.807 238.966C906.031 238.805 906.298 238.712 906.575 238.7C906.575 238.753 906.319 238.849 905.935 239.146C905.392 239.579 904.991 240.164 904.783 240.825C904.614 241.292 904.551 241.791 904.601 242.286C904.651 242.78 904.812 243.257 905.071 243.682C905.393 244.161 905.871 244.514 906.426 244.68C907.029 244.85 907.667 244.85 908.271 244.68C908.852 244.551 909.375 244.237 909.761 243.784C910.146 243.332 910.372 242.766 910.404 242.174C910.328 241.335 909.927 240.558 909.286 240.009C908.644 239.46 907.814 239.181 906.97 239.231C906.468 239.284 906.223 239.422 906.191 239.369Z" fill="#FC5037"/>
<path d="M918.701 249.64C916.834 248.735 915.05 247.669 913.369 246.454C911.582 245.374 909.894 244.141 908.324 242.768C911.988 244.763 915.468 247.077 918.723 249.683L918.701 249.64Z" fill="#FC5037"/>
<path d="M829.333 333.055C829.184 333.055 828.853 319.384 828.597 302.527C828.341 285.67 828.256 272 828.416 272C828.576 272 828.896 285.66 829.152 302.527C829.408 319.395 829.493 333.055 829.333 333.055Z" fill="#FC5037"/>
<path d="M903.557 274.262C903.557 274.411 886.78 274.539 866.099 274.539C845.418 274.539 828.63 274.411 828.63 274.262C828.63 274.114 845.407 273.986 866.099 273.986C886.79 273.986 903.557 274.103 903.557 274.262Z" fill="#FC5037"/>
<path d="M901.317 331.918C901.167 331.918 901.039 319.512 901.039 304.216C901.039 288.921 901.167 276.525 901.317 276.525C901.466 276.525 901.594 288.921 901.594 304.216C901.594 319.512 901.434 331.918 901.317 331.918Z" fill="#FC5037"/>
<path d="M911.502 331.918C911.502 332.067 892.698 332.194 869.5 332.194C846.302 332.194 827.499 332.067 827.499 331.918C827.499 331.77 846.302 331.642 869.5 331.642C892.698 331.642 911.502 331.759 911.502 331.918Z" fill="#FC5037"/>
<path d="M899.013 319.48C899.013 319.628 885.798 319.756 869.501 319.756C853.204 319.756 839.989 319.628 839.989 319.48C839.989 319.331 853.193 319.204 869.501 319.204C885.809 319.204 899.013 319.331 899.013 319.48Z" fill="#FC5037"/>
<path d="M880.849 309.304C880.849 309.453 872.722 309.58 862.717 309.58C852.713 309.58 844.585 309.453 844.585 309.304C844.585 309.155 852.723 309.028 862.717 309.028C872.711 309.028 880.849 309.155 880.849 309.304Z" fill="#FC5037"/>
<path d="M836.415 283.111C836.415 283.111 836.479 283.026 836.629 282.887C836.853 282.685 837.104 282.513 837.375 282.378C838.396 281.888 839.549 281.742 840.66 281.963C841.493 282.108 842.282 282.44 842.968 282.933C843.653 283.426 844.217 284.068 844.617 284.81C845.063 285.724 845.184 286.761 844.958 287.752C844.713 288.796 844.186 289.754 843.434 290.522C842.682 291.289 841.734 291.837 840.692 292.107C839.699 292.345 838.653 292.241 837.727 291.81C836.977 291.42 836.325 290.866 835.82 290.188C835.316 289.511 834.972 288.729 834.815 287.901C834.573 286.799 834.704 285.649 835.189 284.629C835.319 284.356 835.488 284.102 835.69 283.875C835.818 283.727 835.903 283.652 835.914 283.663C835.925 283.673 835.669 284.024 835.381 284.725C834.932 285.951 834.944 287.298 835.415 288.516C835.885 289.735 836.782 290.742 837.94 291.353C838.762 291.73 839.689 291.812 840.564 291.587C841.511 291.341 842.374 290.845 843.061 290.152C843.748 289.458 844.234 288.592 844.468 287.646C844.676 286.772 844.578 285.854 844.191 285.044C843.833 284.36 843.326 283.764 842.708 283.299C842.09 282.834 841.376 282.512 840.618 282.356C839.581 282.116 838.495 282.193 837.503 282.579C836.767 282.866 836.458 283.164 836.415 283.111Z" fill="#FC5037"/>
<path d="M917.976 333.055C917.816 333.055 917.518 319.384 917.304 302.527C917.091 285.67 917.038 272 917.187 272C917.336 272 917.646 285.66 917.859 302.527C918.072 319.395 918.126 333.055 917.976 333.055Z" fill="#FC5037"/>
<path d="M981 274.262C981 274.411 966.751 274.539 949.184 274.539C931.618 274.539 917.379 274.411 917.379 274.262C917.379 274.114 931.618 273.986 949.184 273.986C966.751 273.986 981 274.103 981 274.262Z" fill="#FC5037"/>
<path d="M979.07 331.918C978.92 331.918 978.792 319.512 978.792 304.216C978.792 288.921 978.92 276.525 979.07 276.525C979.219 276.525 979.347 288.921 979.347 304.216C979.347 319.512 979.176 331.918 979.07 331.918Z" fill="#FC5037"/>
<path d="M979.069 331.918C979.069 332.067 965.044 332.194 947.744 332.194C930.444 332.194 916.408 332.067 916.408 331.918C916.408 331.77 930.434 331.642 947.744 331.642C965.055 331.642 979.069 331.759 979.069 331.918Z" fill="#FC5037"/>
<path d="M977.139 319.48C977.139 319.628 965.919 319.756 952.086 319.756C938.252 319.756 927.01 319.628 927.01 319.48C927.01 319.331 938.231 319.204 952.086 319.204C965.94 319.204 977.139 319.331 977.139 319.48Z" fill="#FC5037"/>
<path d="M969.769 309.304C969.769 309.453 961.631 309.58 951.637 309.58C941.644 309.58 933.506 309.453 933.506 309.304C933.506 309.155 941.633 309.028 951.637 309.028C961.642 309.028 969.769 309.155 969.769 309.304Z" fill="#FC5037"/>
<path d="M925.325 283.111C925.325 283.111 925.389 283.026 925.538 282.887C925.765 282.687 926.016 282.516 926.285 282.378C927.306 281.889 928.459 281.743 929.57 281.963C930.403 282.108 931.192 282.44 931.878 282.933C932.563 283.426 933.127 284.068 933.527 284.81C933.978 285.722 934.099 286.762 933.868 287.752C933.623 288.796 933.096 289.754 932.344 290.522C931.592 291.289 930.644 291.837 929.602 292.107C928.608 292.345 927.563 292.24 926.637 291.81C925.887 291.421 925.235 290.867 924.733 290.19C924.23 289.512 923.889 288.729 923.736 287.901C923.491 286.801 923.619 285.65 924.099 284.629C924.229 284.356 924.398 284.102 924.6 283.875C924.739 283.727 924.813 283.652 924.824 283.663C924.835 283.673 924.579 284.024 924.291 284.725C923.842 285.951 923.854 287.298 924.325 288.516C924.795 289.735 925.692 290.742 926.85 291.353C927.672 291.73 928.599 291.812 929.474 291.587C930.421 291.341 931.284 290.845 931.971 290.152C932.658 289.458 933.144 288.592 933.378 287.646C933.589 286.774 933.495 285.856 933.111 285.044C932.485 283.897 931.462 283.015 930.232 282.562C929.002 282.108 927.649 282.115 926.424 282.579C925.677 282.866 925.368 283.164 925.325 283.111Z" fill="#FC5037"/>
<path d="M942.145 346.608C942.145 346.768 916.74 346.884 885.393 346.884C854.046 346.884 828.63 346.768 828.63 346.608C828.63 346.449 854.046 346.332 885.393 346.332C916.74 346.332 942.145 346.46 942.145 346.608Z" fill="#FC5037"/>
<path d="M852.467 363.572C852.467 363.72 847.39 363.848 841.119 363.848C834.847 363.848 829.771 363.72 829.771 363.572C829.771 363.423 834.847 363.295 841.119 363.295C847.39 363.295 852.467 363.412 852.467 363.572Z" fill="#FC5037"/>
<path d="M885.392 364.698C881.805 364.977 878.206 365.07 874.609 364.974C871.012 365.07 867.413 364.978 863.826 364.698C867.414 364.424 871.012 364.332 874.609 364.421C878.206 364.332 881.805 364.424 885.392 364.698Z" fill="#FC5037"/>
<path d="M923.992 362.435C920.594 362.715 917.183 362.807 913.774 362.711C910.366 362.807 906.955 362.715 903.556 362.435C906.955 362.162 910.366 362.07 913.774 362.159C917.183 362.07 920.593 362.162 923.992 362.435Z" fill="#FC5037"/>
<path d="M822.849 425.742C822.699 425.742 822.572 414.865 822.572 401.439C822.572 388.013 822.699 377.136 822.849 377.136C822.998 377.136 823.126 388.013 823.126 401.439C823.126 414.865 823.009 425.742 822.849 425.742Z" fill="#FC5037"/>
<path d="M878.471 423.49C878.471 423.639 865.512 423.766 849.524 423.766C833.536 423.766 820.577 423.639 820.577 423.49C820.577 423.341 833.536 423.214 849.524 423.214C865.512 423.214 878.471 423.331 878.471 423.49Z" fill="#FC5037"/>
<path d="M879.612 421.228C879.452 421.228 879.334 411.859 879.334 400.313C879.334 388.767 879.452 379.398 879.612 379.398C879.772 379.398 879.889 388.756 879.889 400.313C879.889 411.87 879.761 421.228 879.612 421.228Z" fill="#FC5037"/>
<path d="M869.394 378.262C869.394 378.421 859.23 378.538 846.687 378.538C834.144 378.538 823.99 378.421 823.99 378.262C823.99 378.102 834.122 378.007 846.687 378.007C859.251 378.007 869.394 378.113 869.394 378.262Z" fill="#FC5037"/>
<path d="M889.83 421.228C889.67 421.228 889.552 412.114 889.552 400.876C889.552 389.638 889.67 380.524 889.83 380.524C889.99 380.524 890.107 389.638 890.107 400.876C890.107 412.114 889.979 421.228 889.83 421.228Z" fill="#FC5037"/>
<path d="M943.179 423.49C943.179 423.639 930.722 423.766 915.374 423.766C900.026 423.766 887.558 423.639 887.558 423.49C887.558 423.341 900.005 423.214 915.374 423.214C930.743 423.214 943.179 423.331 943.179 423.49Z" fill="#FC5037"/>
<path d="M940.694 422.917C940.545 422.917 940.417 413.357 940.417 401.439C940.417 389.521 940.545 379.961 940.694 379.961C940.844 379.961 940.972 389.574 940.972 401.439C940.972 413.304 940.854 422.917 940.694 422.917Z" fill="#FC5037"/>
<path d="M943.179 377.136C943.179 377.285 930.956 377.412 915.875 377.412C900.794 377.412 888.571 377.285 888.571 377.136C888.571 376.987 900.794 376.86 915.875 376.86C930.956 376.86 943.179 376.945 943.179 377.136Z" fill="#FC5037"/>
<path d="M822.849 481.688C822.699 481.688 822.572 470.811 822.572 457.385C822.572 443.958 822.699 433.082 822.849 433.082C822.998 433.082 823.126 443.958 823.126 457.385C823.126 470.811 823.009 481.688 822.849 481.688Z" fill="#FC5037"/>
<path d="M878.471 479.436C878.471 479.585 865.512 479.712 849.524 479.712C833.536 479.712 820.577 479.585 820.577 479.436C820.577 479.287 833.536 479.16 849.524 479.16C865.512 479.16 878.471 479.276 878.471 479.436Z" fill="#FC5037"/>
<path d="M879.612 477.173C879.452 477.173 879.334 467.805 879.334 456.259C879.334 444.713 879.452 435.344 879.612 435.344C879.772 435.344 879.889 444.702 879.889 456.259C879.889 467.816 879.761 477.173 879.612 477.173Z" fill="#FC5037"/>
<path d="M869.394 434.207C869.394 434.367 859.23 434.484 846.687 434.484C834.144 434.484 823.99 434.367 823.99 434.207C823.99 434.048 834.154 433.931 846.687 433.931C859.219 433.931 869.394 434.059 869.394 434.207Z" fill="#FC5037"/>
<path d="M889.83 477.173C889.67 477.173 889.552 468.06 889.552 456.822C889.552 445.584 889.67 436.47 889.83 436.47C889.99 436.47 890.107 445.584 890.107 456.822C890.107 468.06 889.979 477.173 889.83 477.173Z" fill="#FC5037"/>
<path d="M943.179 479.436C943.179 479.585 930.722 479.712 915.374 479.712C900.026 479.712 887.558 479.585 887.558 479.436C887.558 479.287 900.005 479.16 915.374 479.16C930.743 479.16 943.179 479.276 943.179 479.436Z" fill="#FC5037"/>
<path d="M940.694 478.915C940.545 478.915 940.417 469.302 940.417 457.438C940.417 445.573 940.545 435.96 940.694 435.96C940.844 435.96 940.972 445.573 940.972 457.438C940.972 469.302 940.854 478.915 940.694 478.915Z" fill="#FC5037"/>
<path d="M943.179 433.082C943.179 433.231 930.956 433.358 915.875 433.358C900.794 433.358 888.571 433.231 888.571 433.082C888.571 432.933 900.794 432.806 915.875 432.806C930.956 432.806 943.179 432.933 943.179 433.082Z" fill="#FC5037"/>
<path d="M878.012 377.582C878.108 377.699 865.778 388.002 850.473 400.6C835.168 413.197 822.678 423.31 822.582 423.193C822.486 423.076 834.805 412.773 850.121 400.175C865.437 387.577 877.916 377.465 878.012 377.582Z" fill="#FC5037"/>
<path d="M879.889 419.985C879.804 420.112 867.09 411.232 851.529 400.164C835.967 389.096 823.382 379.983 823.478 379.876C823.574 379.77 836.277 388.629 851.849 399.708C867.421 410.786 879.985 419.857 879.889 419.985Z" fill="#FC5037"/>
<path d="M942.753 381.353C942.622 381.548 942.468 381.726 942.294 381.884L940.886 383.318C939.66 384.56 937.836 386.324 935.553 388.459C930.967 392.707 924.429 398.39 916.803 404.147C909.177 409.904 901.871 414.652 896.538 417.892C893.861 419.517 891.664 420.781 890.138 421.62L888.368 422.587C888.162 422.704 887.948 422.807 887.728 422.895C887.906 422.736 888.103 422.601 888.315 422.491L890.032 421.429C891.536 420.537 893.69 419.209 896.335 417.552C901.668 414.227 908.836 409.437 916.451 403.744C924.066 398.05 930.636 392.378 935.276 388.193C937.601 386.069 939.457 384.39 940.737 383.19L942.209 381.831C942.371 381.651 942.554 381.491 942.753 381.353Z" fill="#FC5037"/>
<path d="M942.198 422.375C942 422.243 941.818 422.09 941.654 421.918L940.172 420.548L934.732 415.471C930.114 411.222 923.629 405.454 916.206 399.4C908.783 393.345 901.807 388.172 896.698 384.529C894.181 382.744 892.112 381.289 890.629 380.227L888.976 379.059C888.78 378.928 888.595 378.783 888.422 378.623C888.642 378.708 888.85 378.823 889.04 378.963L890.747 380.025C892.229 380.971 894.341 382.383 896.922 384.178C902.095 387.758 909.113 392.899 916.558 398.953C924.003 405.008 930.423 410.829 934.999 415.163C937.281 417.287 939.095 419.114 940.332 420.367C940.918 420.962 941.398 421.429 941.74 421.823C941.908 421.993 942.061 422.178 942.198 422.375Z" fill="#FC5037"/>
<path d="M943.052 435.366C943.148 435.493 931.117 445.361 916.174 457.406C901.231 469.451 889.051 479.139 888.955 479.011C888.859 478.884 900.89 469.026 915.833 456.981C930.776 444.936 942.913 435.238 943.052 435.366Z" fill="#FC5037"/>
<path d="M943.478 479.638C943.291 479.509 943.116 479.363 942.956 479.202L941.537 477.853L936.343 472.978C931.949 468.867 925.794 463.269 918.798 457.31C911.801 451.351 905.295 446.168 900.538 442.44L894.896 438.085L893.36 436.895C893.176 436.762 893.005 436.612 892.848 436.449C893.053 436.548 893.246 436.669 893.424 436.81L895.024 437.872C896.4 438.839 898.373 440.283 900.783 442.121C905.604 445.732 912.153 450.873 919.16 456.843C926.168 462.812 932.279 468.453 936.609 472.638C938.743 474.762 940.513 476.44 941.686 477.651L943.041 479.043C943.34 479.446 943.5 479.616 943.478 479.638Z" fill="#FC5037"/>
<path d="M879.174 432.901C879.024 433.103 878.848 433.285 878.652 433.443L877.084 434.898C875.708 436.162 873.692 437.957 871.186 440.156C866.162 444.543 859.123 450.491 851.155 456.822C843.188 463.152 835.786 468.665 830.379 472.542C827.669 474.486 825.462 476.047 823.926 477.099L822.145 478.299C821.946 478.453 821.732 478.585 821.505 478.692C821.68 478.514 821.873 478.354 822.081 478.214L823.798 476.929L830.144 472.223C835.477 468.251 842.836 462.664 850.803 456.365C858.771 450.066 865.842 444.15 870.93 439.837L876.935 434.717L878.577 433.336C878.766 433.178 878.966 433.032 879.174 432.901Z" fill="#FC5037"/>
<path d="M882.118 477.364C881.91 477.241 881.713 477.099 881.531 476.939L879.932 475.644C878.545 474.496 876.54 472.871 874.033 470.874C869.031 466.88 862.002 461.506 853.961 456.004C845.919 450.501 838.389 445.806 832.874 442.556C830.112 440.931 827.872 439.635 826.315 438.754L824.534 437.691C824.321 437.577 824.117 437.445 823.926 437.298C824.157 437.372 824.379 437.471 824.587 437.596L826.422 438.541C828.011 439.37 830.283 440.612 833.066 442.195C838.645 445.382 846.217 449.981 854.28 455.526C862.344 461.07 869.319 466.487 874.268 470.566C876.743 472.606 878.716 474.284 880.06 475.474L881.595 476.854C881.787 477.006 881.962 477.177 882.118 477.364Z" fill="#FC5037"/>
<path d="M786.255 141.255L765.595 141.138C764.921 141.15 764.257 141.295 763.639 141.563C763.021 141.831 762.463 142.218 761.995 142.701C761.528 143.185 761.16 143.755 760.914 144.38C760.668 145.005 760.548 145.671 760.561 146.342V150.071C760.573 150.741 760.453 151.408 760.207 152.032C759.961 152.656 759.593 153.225 759.126 153.708C758.658 154.19 758.099 154.576 757.482 154.843C756.864 155.111 756.2 155.254 755.527 155.265L715.263 155.084C713.903 155.045 712.615 154.471 711.679 153.488C710.743 152.504 710.237 151.191 710.272 149.837V146.109C710.306 144.753 709.799 143.438 708.861 142.454C707.923 141.471 706.631 140.898 705.27 140.862H698.006L679.928 140.777C677.794 140.767 675.679 141.176 673.703 141.98C671.728 142.785 669.931 143.969 668.416 145.466C666.9 146.962 665.696 148.741 664.871 150.702C664.046 152.662 663.618 154.765 663.609 156.89L662.543 416.512C662.528 420.802 664.224 424.923 667.257 427.97C670.291 431.017 674.414 432.741 678.723 432.763L785.039 433.252C787.173 433.262 789.289 432.853 791.265 432.048C793.241 431.244 795.038 430.059 796.554 428.563C798.071 427.067 799.276 425.288 800.102 423.327C800.928 421.367 801.358 419.264 801.368 417.138L802.434 157.517C802.446 155.391 802.036 153.283 801.229 151.315C800.421 149.346 799.232 147.556 797.73 146.045C796.227 144.535 794.44 143.334 792.471 142.512C790.502 141.69 788.39 141.263 786.255 141.255Z" fill="#FAFAFA"/>
<path d="M801.699 151.228C800.318 147.868 797.882 145.043 794.755 143.177C792.853 142.038 790.73 141.314 788.526 141.053C788.096 140.979 787.661 140.94 787.225 140.936H786.82H786.255H784.047L766.982 140.808H766.331C765.406 140.739 764.476 140.862 763.601 141.169C762.408 141.643 761.414 142.509 760.785 143.623C760.466 144.203 760.242 144.831 760.123 145.482C760.045 145.984 760.013 146.493 760.027 147.001V149.678C760.05 150.208 760.007 150.74 759.9 151.26C759.761 151.874 759.501 152.454 759.134 152.966C758.768 153.479 758.303 153.913 757.766 154.245C757.22 154.584 756.604 154.798 755.964 154.872C755.506 154.899 755.046 154.899 754.588 154.872H753.788L717.055 154.659H716.106C715.462 154.692 714.817 154.642 714.186 154.511C713.3 154.293 712.508 153.798 711.925 153.098C711.33 152.397 710.959 151.535 710.858 150.623C710.82 149.976 710.82 149.327 710.858 148.679C710.858 148.297 710.858 147.914 710.858 147.543C710.858 147.362 710.858 147.181 710.858 147.001C710.928 146.06 710.812 145.115 710.517 144.218C710.115 143.08 709.37 142.093 708.384 141.392C707.377 140.701 706.171 140.358 704.95 140.415L680.632 140.288C678.057 140.178 675.492 140.656 673.131 141.685C670.77 142.715 668.677 144.267 667.012 146.225C665.313 148.229 664.102 150.595 663.471 153.14C663.363 153.567 663.281 154 663.225 154.436C663.225 154.659 663.161 154.882 663.119 155.148V155.605C663.119 156.115 663.055 156.667 663.044 157.134L661.977 388.565L661.86 415.662C661.789 417.555 662.015 419.447 662.532 421.27C663.624 424.966 665.944 428.184 669.113 430.394C672.288 432.564 676.093 433.632 679.938 433.432L775.823 433.868C777.029 433.868 778.245 433.868 779.45 433.868H782.65C783.791 433.868 784.932 433.868 786.073 433.868C789.602 433.675 792.981 432.386 795.736 430.182C797.077 429.08 798.252 427.792 799.224 426.358C800.174 424.92 800.894 423.343 801.357 421.684C801.823 420.036 802.046 418.33 802.019 416.618L802.552 278.139L802.904 165.568V157.963C802.959 155.66 802.549 153.37 801.699 151.228ZM787.193 141.732C787.587 141.74 787.98 141.783 788.366 141.86C790.461 142.144 792.472 142.868 794.265 143.984C797.214 145.756 799.502 148.437 800.781 151.621C802.029 154.404 801.955 157.857 801.848 161.521C801.848 162.849 801.795 164.219 801.848 165.611L800.632 416.618C800.658 418.207 800.453 419.792 800.024 421.323C799.586 422.849 798.917 424.3 798.04 425.625C797.149 426.951 796.072 428.142 794.84 429.162C792.305 431.184 789.199 432.368 785.956 432.551C783.823 432.604 781.551 432.551 779.386 432.551H776.079H775.781L679.885 432.104C676.323 432.292 672.797 431.311 669.849 429.311C666.926 427.281 664.788 424.316 663.791 420.909C663.31 419.181 663.101 417.389 663.172 415.598L664.238 161.096C664.238 160.363 664.238 159.63 664.238 158.908C664.145 157.077 664.289 155.243 664.665 153.448C665.227 151.049 666.349 148.814 667.939 146.927C669.486 145.097 671.434 143.646 673.633 142.685C675.831 141.724 678.222 141.278 680.621 141.382L704.96 141.477C705.942 141.424 706.914 141.697 707.723 142.253C708.524 142.811 709.129 143.606 709.451 144.526C709.692 145.291 709.786 146.095 709.728 146.895C709.728 147.086 709.728 147.277 709.728 147.468C709.728 147.84 709.728 148.212 709.728 148.53C709.685 149.238 709.685 149.947 709.728 150.655C709.87 151.793 710.345 152.864 711.093 153.735C711.835 154.598 712.826 155.213 713.93 155.498C714.467 155.629 715.02 155.686 715.573 155.668L753.82 155.796H754.599C755.079 155.796 755.58 155.796 756.092 155.796C756.914 155.688 757.701 155.398 758.396 154.946C759.043 154.541 759.602 154.011 760.04 153.387C760.478 152.763 760.785 152.058 760.945 151.313C761.067 150.72 761.117 150.113 761.094 149.508V146.884C761.078 146.433 761.107 145.981 761.179 145.535C761.272 144.991 761.456 144.467 761.723 143.984C762.241 143.059 763.062 142.339 764.048 141.945C764.796 141.678 765.593 141.577 766.384 141.647H767.056H784.121H786.308H786.831L787.193 141.732Z" fill="#263238"/>
<path d="M682.242 186.886C681.95 186.728 681.678 186.535 681.432 186.313C680.941 185.92 680.226 185.336 679.373 184.592C677.656 183.105 675.342 180.97 672.899 178.484L672.718 178.304L672.899 178.113L673.027 177.964C675.374 175.34 677.517 172.982 679.085 171.304C679.897 170.356 680.777 169.468 681.72 168.648C681.013 169.674 680.232 170.646 679.384 171.559C677.88 173.311 675.779 175.712 673.443 178.336L673.304 178.484V178.102C675.736 180.577 677.987 182.744 679.64 184.305C680.565 185.106 681.435 185.968 682.242 186.886Z" fill="#FC5037"/>
<path d="M769.648 180.035C769.648 180.184 752.103 180.311 730.462 180.311C708.821 180.311 691.265 180.184 691.265 180.035C691.265 179.886 708.811 179.759 730.462 179.759C752.113 179.759 769.648 179.876 769.648 180.035Z" fill="#FC5037"/>
<path d="M781.988 169.955C782.286 169.739 782.635 169.603 783.001 169.562C783.847 169.43 784.712 169.544 785.494 169.891C786.275 170.238 786.939 170.802 787.406 171.516C787.843 172.215 788.048 173.032 787.993 173.853C787.935 174.782 787.599 175.673 787.029 176.411C786.459 177.15 785.68 177.701 784.793 177.996C783.877 178.216 782.915 178.163 782.029 177.842C781.143 177.52 780.372 176.946 779.812 176.19C779.31 175.544 779.013 174.764 778.959 173.949C778.91 173.1 779.089 172.253 779.477 171.495C779.865 170.737 780.448 170.096 781.167 169.636C781.458 169.416 781.805 169.28 782.169 169.243C782.169 169.243 781.828 169.413 781.284 169.817C780.537 170.387 779.974 171.162 779.663 172.047C779.417 172.68 779.339 173.365 779.436 174.037C779.533 174.709 779.802 175.344 780.218 175.882C780.719 176.541 781.404 177.04 782.186 177.317C782.969 177.594 783.815 177.638 784.622 177.443C785.408 177.183 786.099 176.698 786.607 176.047C787.116 175.397 787.42 174.611 787.481 173.789C787.529 173.116 787.387 172.442 787.07 171.845C786.753 171.248 786.275 170.751 785.689 170.412C784.897 169.905 783.96 169.674 783.023 169.753C782.361 169.817 782.009 170.008 781.988 169.955Z" fill="#FC5037"/>
<path d="M793.891 181.501C792.334 180.655 790.868 179.652 789.518 178.505C788.046 177.507 786.688 176.354 785.465 175.064C787.028 175.911 788.497 176.919 789.849 178.07C791.312 179.072 792.666 180.221 793.891 181.501Z" fill="#FC5037"/>
<path d="M677.997 293.477C677.837 293.477 677.709 274.188 677.709 250.384C677.709 226.58 677.837 207.291 677.997 207.291C678.157 207.291 678.275 226.58 678.275 250.384C678.275 274.188 678.147 293.477 677.997 293.477Z" fill="#FC5037"/>
<path d="M722.132 293.477C722.132 293.637 712.256 293.754 700.065 293.754C687.874 293.754 678.008 293.637 678.008 293.477C678.008 293.318 687.884 293.201 700.065 293.201C712.245 293.201 722.132 293.329 722.132 293.477Z" fill="#FC5037"/>
<path d="M727.284 200.44C727.433 200.44 727.561 221.015 727.561 246.39C727.561 271.766 727.433 292.341 727.284 292.341C727.134 292.341 727.006 271.766 727.006 246.39C727.006 221.015 727.134 200.44 727.284 200.44Z" fill="#FC5037"/>
<path d="M723.273 203.297C723.273 203.446 713.258 203.573 700.875 203.573C688.492 203.573 678.477 203.446 678.477 203.297C678.477 203.148 688.482 203.021 700.875 203.021C713.269 203.021 723.273 203.138 723.273 203.297Z" fill="#FC5037"/>
<path d="M736.179 316.655C736.019 316.655 735.902 297.355 735.902 273.561C735.902 249.768 736.019 230.468 736.179 230.468C736.339 230.468 736.456 249.758 736.456 273.561C736.456 297.365 736.328 316.655 736.179 316.655Z" fill="#FC5037"/>
<path d="M780.314 316.655C780.314 316.803 770.427 316.931 758.246 316.931C746.066 316.931 736.179 316.803 736.179 316.655C736.179 316.506 746.055 316.378 758.246 316.378C770.437 316.378 780.314 316.506 780.314 316.655Z" fill="#FC5037"/>
<path d="M785.465 223.617C785.625 223.617 785.742 244.191 785.742 269.557C785.742 294.922 785.625 315.507 785.465 315.507C785.305 315.507 785.188 294.943 785.188 269.557C785.188 244.17 785.316 223.617 785.465 223.617Z" fill="#FC5037"/>
<path d="M781.455 226.464C781.455 226.623 771.45 226.75 759.057 226.75C746.663 226.75 736.659 226.623 736.659 226.464C736.659 226.304 746.663 226.188 759.057 226.188C771.45 226.188 781.455 226.315 781.455 226.464Z" fill="#FC5037"/>
<path d="M736.179 421.96C736.019 421.96 735.902 402.671 735.902 378.867C735.902 355.063 736.019 335.774 736.179 335.774C736.339 335.774 736.456 355.063 736.456 378.867C736.456 402.671 736.328 421.96 736.179 421.96Z" fill="#FC5037"/>
<path d="M780.314 421.96C780.314 422.109 770.427 422.236 758.246 422.236C746.066 422.236 736.179 422.109 736.179 421.96C736.179 421.812 746.055 421.684 758.246 421.684C770.437 421.684 780.314 421.812 780.314 421.96Z" fill="#FC5037"/>
<path d="M785.465 328.923C785.625 328.923 785.742 349.498 785.742 374.873C785.742 400.249 785.625 420.824 785.465 420.824C785.305 420.824 785.188 400.249 785.188 374.873C785.188 349.498 785.316 328.923 785.465 328.923Z" fill="#FC5037"/>
<path d="M781.455 331.78C781.455 331.929 771.45 332.056 759.057 332.056C746.663 332.056 736.659 331.929 736.659 331.78C736.659 331.631 746.663 331.504 759.057 331.504C771.45 331.504 781.455 331.621 781.455 331.78Z" fill="#FC5037"/>
<path d="M677.997 402.023C677.837 402.023 677.709 382.733 677.709 358.93C677.709 335.126 677.837 315.836 677.997 315.836C678.157 315.836 678.275 335.126 678.275 358.93C678.275 382.733 678.147 402.023 677.997 402.023Z" fill="#FC5037"/>
<path d="M722.132 402.023C722.132 402.183 712.256 402.299 700.065 402.299C687.874 402.299 678.008 402.183 678.008 402.023C678.008 401.864 687.884 401.747 700.065 401.747C712.245 401.747 722.132 401.875 722.132 402.023Z" fill="#FC5037"/>
<path d="M727.284 308.964C727.433 308.964 727.561 329.539 727.561 354.915C727.561 380.291 727.433 400.865 727.284 400.865C727.134 400.865 727.006 380.291 727.006 354.915C727.006 329.539 727.134 308.964 727.284 308.964Z" fill="#FC5037"/>
<path d="M723.273 311.843C723.273 311.991 713.258 312.119 700.875 312.119C688.492 312.119 678.477 311.991 678.477 311.843C678.477 311.694 688.482 311.566 700.875 311.566C713.269 311.566 723.273 311.683 723.273 311.843Z" fill="#FC5037"/>
<path d="M686.935 222.438C686.748 221.458 686.656 220.462 686.658 219.464C686.562 217.626 686.455 215.088 686.38 212.273C686.38 211.837 686.38 211.402 686.38 210.988H686.935C686.691 213.107 686.145 215.182 685.314 217.148C685.016 217.961 684.603 218.726 684.087 219.421C685.2 216.693 685.974 213.839 686.391 210.924H686.935C686.935 211.338 686.935 211.774 686.935 212.209C687.02 215.013 687.052 217.52 687.052 219.4C687.11 220.414 687.07 221.431 686.935 222.438Z" fill="#FC5037"/>
<path d="M689.719 223.511C687.341 223.798 684.933 223.709 682.583 223.245C683.76 223.019 684.964 222.969 686.156 223.097C687.358 223.054 688.559 223.194 689.719 223.511Z" fill="#FC5037"/>
<path d="M751.239 242.917C750.339 243.091 749.425 243.183 748.508 243.193C746.813 243.299 744.434 243.416 741.725 243.522H741.042L741.522 243.034C741.97 242.588 742.418 242.11 742.856 241.621C743.868 240.586 744.544 239.273 744.797 237.85C744.898 237.287 744.859 236.707 744.682 236.163C744.506 235.618 744.197 235.125 743.783 234.727C743.495 234.469 743.158 234.27 742.792 234.143C742.426 234.015 742.038 233.961 741.65 233.984C741.358 234.026 741.069 234.09 740.786 234.175C740.786 234.175 741.01 233.888 741.618 233.771C742.046 233.704 742.483 233.728 742.9 233.841C743.317 233.955 743.706 234.155 744.039 234.43C744.532 234.852 744.907 235.394 745.129 236.002C745.351 236.61 745.413 237.265 745.309 237.903C745.081 239.439 744.376 240.866 743.293 241.982C742.834 242.492 742.376 242.97 741.928 243.416L741.725 242.949C744.423 242.874 746.802 242.821 748.508 242.811C749.42 242.765 750.334 242.801 751.239 242.917Z" fill="#FC5037"/>
<path d="M681.911 331.387C682.212 331.412 682.511 331.455 682.807 331.514C683.603 331.588 684.404 331.429 685.111 331.058C685.632 330.808 686.084 330.437 686.431 329.977C686.778 329.517 687.01 328.98 687.106 328.413C687.187 327.717 687.083 327.012 686.804 326.369C686.525 325.725 686.081 325.167 685.516 324.748C685.272 324.574 685.007 324.431 684.727 324.323L684.034 324.037L684.727 323.803C685.345 323.62 685.886 323.242 686.27 322.727C686.655 322.212 686.862 321.587 686.86 320.946C686.846 320.432 686.661 319.938 686.335 319.541C686.009 319.143 685.56 318.864 685.058 318.747C684.711 318.693 684.356 318.722 684.022 318.831C683.689 318.94 683.386 319.126 683.138 319.374C682.775 319.735 682.711 320.032 682.658 320.011C682.605 319.99 682.658 319.682 682.978 319.235C683.234 318.927 683.563 318.687 683.935 318.537C684.308 318.386 684.712 318.331 685.111 318.375C685.718 318.482 686.27 318.79 686.678 319.249C687.087 319.708 687.328 320.291 687.362 320.903C687.389 321.657 687.168 322.399 686.733 323.016C686.298 323.633 685.672 324.092 684.951 324.323V323.835C685.282 323.959 685.594 324.127 685.879 324.334C686.526 324.807 687.032 325.447 687.344 326.183C687.656 326.92 687.761 327.727 687.65 328.519C687.534 329.159 687.261 329.761 686.856 330.271C686.45 330.78 685.924 331.182 685.324 331.44C684.545 331.81 683.666 331.922 682.818 331.759C682.487 331.721 682.173 331.592 681.911 331.387Z" fill="#FC5037"/>
<path d="M747.261 346.821C747.261 346.821 747.261 347.033 747.026 347.32C746.693 347.709 746.245 347.984 745.746 348.106C745 348.302 744.209 348.222 743.517 347.883C742.676 347.423 742.041 346.664 741.736 345.758C741.422 344.899 741.319 343.978 741.437 343.071C741.536 342.345 741.719 341.632 741.981 340.947C742.167 340.309 742.463 339.709 742.856 339.173C742.754 339.818 742.586 340.452 742.355 341.064C741.835 342.504 741.801 344.074 742.259 345.535C742.529 346.301 743.057 346.95 743.752 347.373C744.338 347.679 745.01 347.78 745.661 347.66C746.267 347.546 746.824 347.254 747.261 346.821Z" fill="#FC5037"/>
<path d="M746.823 360.853C746.604 357.529 746.569 354.196 746.717 350.868C746.685 347.534 746.835 344.201 747.165 340.883C747.383 344.211 747.419 347.547 747.271 350.879C747.31 354.209 747.16 357.539 746.823 360.853Z" fill="#FC5037"/>
<path d="M625.437 200.397L604.809 200.302C603.45 200.327 602.157 200.888 601.213 201.862C600.269 202.836 599.752 204.143 599.775 205.496V209.224C599.787 209.895 599.667 210.562 599.421 211.187C599.175 211.812 598.808 212.382 598.34 212.865C597.873 213.349 597.314 213.735 596.697 214.004C596.079 214.272 595.414 214.417 594.741 214.429L554.488 214.238C553.128 214.202 551.838 213.63 550.901 212.649C549.963 211.667 549.454 210.356 549.486 209.001V205.262C549.52 203.909 549.014 202.597 548.078 201.615C547.142 200.634 545.853 200.062 544.494 200.026H537.231L519.099 199.951C514.798 199.934 510.666 201.617 507.609 204.629C504.552 207.642 502.819 211.739 502.791 216.022L501.725 475.633C501.713 477.758 502.123 479.864 502.93 481.831C503.736 483.798 504.925 485.588 506.426 487.097C507.928 488.607 509.714 489.806 511.682 490.628C513.649 491.449 515.76 491.876 517.894 491.885L624.21 492.373C626.345 492.385 628.461 491.976 630.438 491.172C632.414 490.369 634.212 489.184 635.729 487.688C637.245 486.191 638.451 484.412 639.276 482.451C640.102 480.49 640.531 478.386 640.539 476.26L641.606 216.649C641.62 212.36 639.926 208.241 636.895 205.194C633.864 202.148 629.743 200.423 625.437 200.397Z" fill="#FAFAFA"/>
<path d="M640.88 210.361C639.507 206.999 637.069 204.175 633.937 202.32C632.038 201.182 629.919 200.458 627.719 200.196C627.286 200.114 626.847 200.071 626.407 200.068H626.012H625.447H623.229L606.163 199.93H605.513C604.591 199.853 603.663 199.976 602.793 200.291C601.593 200.752 600.595 201.621 599.977 202.745C599.647 203.321 599.42 203.95 599.305 204.604C599.226 205.106 599.194 205.614 599.209 206.123V208.789C599.23 209.322 599.19 209.857 599.092 210.382C598.953 210.995 598.692 211.575 598.326 212.087C597.96 212.6 597.495 213.035 596.959 213.367C596.411 213.705 595.796 213.919 595.156 213.993C594.719 213.993 594.271 213.993 593.78 213.993H592.98L556.248 213.792C555.938 213.792 555.618 213.792 555.298 213.792C554.655 213.828 554.01 213.782 553.379 213.653C552.497 213.426 551.707 212.933 551.117 212.241C550.527 211.537 550.156 210.677 550.051 209.766C550.013 209.115 550.013 208.462 550.051 207.811C550.051 207.44 550.051 207.057 550.051 206.686V206.133C550.12 205.192 550.004 204.247 549.71 203.35C549.318 202.201 548.563 201.208 547.557 200.523C546.551 199.837 545.349 199.495 544.131 199.548L519.814 199.42C517.24 199.314 514.676 199.795 512.318 200.826C509.959 201.857 507.868 203.41 506.204 205.368C504.487 207.372 503.263 209.747 502.631 212.305C502.524 212.731 502.443 213.164 502.386 213.6C502.386 213.823 502.322 214.047 502.279 214.323V214.779C502.279 215.289 502.215 215.842 502.204 216.309L501.01 474.805C500.948 476.698 501.178 478.589 501.692 480.413C502.778 484.112 505.1 487.332 508.273 489.537C511.449 491.706 515.254 492.77 519.099 492.564L614.973 493H618.6H621.799C622.941 493 624.092 493 625.234 493C628.763 492.802 632.142 491.51 634.897 489.304C636.24 488.205 637.415 486.917 638.385 485.48C639.331 484.043 640.05 482.47 640.518 480.817C640.983 479.168 641.205 477.462 641.179 475.75L641.798 316.049L642.118 217.095C642.162 214.79 641.741 212.5 640.88 210.361ZM626.407 200.865C626.801 200.874 627.193 200.916 627.58 200.992C629.67 201.283 631.675 202.007 633.468 203.117C636.415 204.893 638.705 207.572 639.995 210.754C641.232 213.537 641.168 216.999 641.062 220.664C641.062 221.981 641.008 223.351 641.062 224.743L639.846 475.729C639.876 477.315 639.671 478.897 639.238 480.424C638.805 481.955 638.136 483.41 637.254 484.736C636.366 486.061 635.288 487.249 634.054 488.263C631.521 490.291 628.415 491.479 625.17 491.662C623.037 491.715 620.797 491.662 618.642 491.662H615.005L519.11 491.205C515.543 491.422 512.005 490.462 509.041 488.475C506.107 486.414 503.97 483.415 502.983 479.977C502.513 478.28 502.304 476.522 502.364 474.762L503.431 220.175C503.431 219.442 503.431 218.71 503.431 217.977C503.33 216.146 503.469 214.311 503.847 212.517C504.412 210.118 505.533 207.884 507.121 205.995C508.671 204.17 510.619 202.722 512.817 201.763C515.016 200.804 517.405 200.358 519.803 200.461L544.142 200.557C545.125 200.503 546.099 200.772 546.915 201.321C547.708 201.886 548.308 202.679 548.632 203.595C548.878 204.359 548.972 205.163 548.91 205.963V206.547C548.91 206.919 548.91 207.28 548.91 207.61C548.866 208.317 548.866 209.027 548.91 209.734C549.051 210.874 549.53 211.946 550.286 212.814C551.017 213.69 552.012 214.308 553.123 214.578C553.656 214.709 554.205 214.766 554.754 214.748L593.002 214.886C593.268 214.886 593.524 214.886 593.791 214.886C594.288 214.912 594.787 214.912 595.284 214.886C596.079 214.795 596.844 214.531 597.524 214.11C598.174 213.705 598.735 213.173 599.175 212.547C599.615 211.921 599.924 211.214 600.084 210.467C600.198 209.872 600.244 209.266 600.223 208.661V205.995C600.203 205.544 600.228 205.092 600.297 204.646C600.392 204.101 600.579 203.577 600.852 203.095C601.366 202.174 602.183 201.457 603.166 201.066C603.918 200.802 604.718 200.697 605.513 200.758H606.174H623.239C624.551 200.758 625.287 200.758 625.372 200.758H625.895C626.076 200.854 626.226 200.854 626.407 200.865Z" fill="#263238"/>
<path d="M515.291 447.931C515.131 447.931 514.118 400.918 513.019 342.922C511.921 284.927 511.163 237.893 511.313 237.893C511.462 237.893 512.486 284.895 513.574 342.912C514.662 400.929 515.44 447.931 515.291 447.931Z" fill="#FC5037"/>
<path d="M621.949 235.078C621.949 235.237 596.596 235.354 565.335 235.354C534.074 235.354 508.71 235.237 508.71 235.078C508.71 234.919 534.052 234.802 565.335 234.802C596.618 234.802 621.949 234.929 621.949 235.078Z" fill="#FC5037"/>
<path d="M635.398 458.51C635.238 458.51 635.11 406.282 635.11 341.871C635.11 277.459 635.238 225.21 635.398 225.21C635.558 225.21 635.675 277.427 635.675 341.871C635.675 406.314 635.547 458.51 635.398 458.51Z" fill="#FC5037"/>
<path d="M637.521 458.511C637.521 458.659 609.63 458.787 575.243 458.787C540.857 458.787 512.955 458.659 512.955 458.511C512.955 458.362 540.836 458.234 575.243 458.234C609.651 458.234 637.521 458.351 637.521 458.511Z" fill="#FC5037"/>
<path d="M624.007 242.609C624.184 242.63 624.356 242.676 624.519 242.747C624.727 242.805 624.927 242.887 625.116 242.991C625.387 243.117 625.647 243.262 625.895 243.427C627.23 244.336 628.282 245.598 628.934 247.072C629.587 248.545 629.812 250.171 629.585 251.765C629.341 253.275 628.641 254.675 627.58 255.78C626.422 257.002 624.945 257.878 623.314 258.308C621.562 258.827 619.685 258.744 617.986 258.072C616.287 257.399 614.865 256.177 613.949 254.601C613.047 253.181 612.549 251.544 612.51 249.864C612.442 248.344 612.812 246.836 613.576 245.519C614.247 244.386 615.157 243.411 616.243 242.662C617.804 241.563 619.664 240.962 621.575 240.941C621.87 240.913 622.166 240.913 622.461 240.941C622.676 240.956 622.89 240.988 623.101 241.037C623.276 241.065 623.447 241.112 623.613 241.175C623.613 241.239 622.877 241.047 621.575 241.111C619.737 241.215 617.969 241.85 616.488 242.938C615.469 243.675 614.615 244.616 613.981 245.7C613.274 246.951 612.934 248.376 613 249.811C613.048 251.395 613.527 252.937 614.387 254.272C615.283 255.703 616.607 256.817 618.173 257.458C619.766 258.063 621.511 258.145 623.154 257.692C624.689 257.326 626.092 256.543 627.207 255.43C628.215 254.406 628.888 253.103 629.137 251.691C629.331 250.454 629.236 249.189 628.86 247.994C628.34 246.234 627.253 244.692 625.767 243.607C625.206 243.231 624.618 242.897 624.007 242.609Z" fill="#FC5037"/>
<path d="M616.637 254.792C617.458 253.046 618.444 251.381 619.581 249.821C620.562 248.158 621.701 246.593 622.983 245.147C622.16 246.892 621.174 248.557 620.04 250.119C619.059 251.782 617.919 253.347 616.637 254.792Z" fill="#FC5037"/>
<path d="M626.684 255.578C624.724 254.285 622.866 252.843 621.127 251.266C619.276 249.826 617.54 248.246 615.933 246.539C617.9 247.82 619.758 249.259 621.49 250.841C623.34 252.286 625.076 253.87 626.684 255.578Z" fill="#FC5037"/>
<path d="M532.495 361.49C532.346 361.49 532.218 344.197 532.218 322.879C532.218 301.561 532.346 284.258 532.495 284.258C532.644 284.258 532.772 301.54 532.772 322.879C532.772 344.219 532.644 361.49 532.495 361.49Z" fill="#FC5037"/>
<path d="M618.056 360.799C618.056 360.948 598.975 361.075 575.446 361.075C551.918 361.075 532.847 360.948 532.847 360.799C532.847 360.65 551.918 360.523 575.446 360.523C598.975 360.523 618.056 360.65 618.056 360.799Z" fill="#FC5037"/>
<path d="M617.01 289.101C617.16 289.101 617.288 305.034 617.288 324.78C617.288 344.526 617.16 360.459 617.01 360.459C616.861 360.459 616.733 344.526 616.733 324.78C616.733 305.034 616.85 289.101 617.01 289.101Z" fill="#FC5037"/>
<path d="M618.056 286.34C618.056 286.488 598.665 286.616 574.753 286.616C550.84 286.616 531.45 286.488 531.45 286.34C531.45 286.191 550.84 286.053 574.753 286.053C598.665 286.053 618.056 286.18 618.056 286.34Z" fill="#FC5037"/>
<path d="M574.123 343.316C574.005 343.161 573.905 342.994 573.825 342.817L573.035 341.33C572.353 340.044 571.361 338.143 570.06 335.923C568.758 333.703 567.148 331.026 565.217 328.169C564.279 326.756 563.212 325.237 562.146 323.835C561.907 323.472 561.574 323.18 561.18 322.993C560.787 322.806 560.35 322.73 559.917 322.773C559.013 323.011 558.201 323.51 557.581 324.207C552.141 329.985 547.512 335.53 544.238 339.588L540.398 344.42L539.332 345.738C539.217 345.897 539.084 346.043 538.937 346.173C539.011 345.993 539.112 345.825 539.236 345.674L540.206 344.293C541.049 343.103 542.339 341.404 543.907 339.343C547.107 335.211 551.683 329.635 557.165 323.803C557.872 323.032 558.792 322.485 559.81 322.231C560.346 322.143 560.897 322.233 561.378 322.486C561.826 322.732 562.221 323.064 562.54 323.463C563.703 324.993 564.673 326.48 565.665 327.925C567.575 330.803 569.153 333.48 570.422 335.764C571.692 338.047 572.63 339.949 573.249 341.266C573.558 341.924 573.793 342.445 573.942 342.795C574.025 342.96 574.086 343.135 574.123 343.316Z" fill="#FC5037"/>
<path d="M610.59 332.258C610.441 332.138 610.305 332.003 610.185 331.855L609.118 330.654L605.182 326.129C601.833 322.22 597.268 316.888 592.17 310.908H592.575L590.944 312.586L575.713 327.914L571.063 332.513L569.783 333.745C569.484 334.032 569.313 334.17 569.303 334.149C569.417 333.976 569.549 333.816 569.697 333.671L570.913 332.333L575.436 327.606C579.35 323.612 584.661 318.173 590.528 312.161L592.159 310.504L592.373 310.292L592.565 310.526L605.449 325.864L609.257 330.484L610.323 331.759C610.436 331.911 610.526 332.08 610.59 332.258Z" fill="#FC5037"/>
<path d="M571.809 301.083C571.809 301.083 571.894 301.008 572.075 300.913C572.346 300.775 572.638 300.682 572.939 300.637C574.044 300.454 575.178 300.669 576.139 301.242C576.829 301.636 577.405 302.199 577.814 302.878C578.287 303.666 578.482 304.59 578.368 305.502C578.255 306.547 577.818 307.531 577.119 308.319C576.42 309.107 575.492 309.659 574.464 309.899C573.422 310.048 572.359 309.877 571.416 309.411C570.474 308.944 569.695 308.203 569.185 307.286C568.726 306.488 568.525 305.568 568.609 304.652C568.695 303.871 568.958 303.119 569.377 302.453C569.97 301.482 570.87 300.734 571.937 300.329C572.22 300.215 572.518 300.144 572.822 300.116C573.025 300.116 573.131 300.116 573.131 300.116C573.131 300.116 572.705 300.212 572.065 300.52C571.098 300.978 570.294 301.719 569.761 302.644C569.393 303.267 569.171 303.964 569.11 304.684C569.056 305.5 569.249 306.314 569.665 307.02C570.133 307.833 570.834 308.488 571.677 308.902C572.52 309.316 573.468 309.471 574.4 309.347C575.315 309.127 576.14 308.636 576.767 307.937C577.394 307.239 577.793 306.367 577.91 305.438C578.017 304.628 577.86 303.805 577.462 303.09C577.109 302.477 576.611 301.959 576.011 301.582C575.118 301.003 574.053 300.744 572.993 300.849C572.225 300.934 571.83 301.136 571.809 301.083Z" fill="#FC5037"/>
<path d="M607.134 380.8C606.911 380.86 606.682 380.896 606.451 380.907L604.51 381.098L597.353 381.703C594.314 381.926 590.741 382.277 586.688 382.489C585.641 382.522 584.595 382.451 583.563 382.277C582.488 382.063 581.448 381.705 580.47 381.215C579.49 380.721 578.482 380.284 577.451 379.908C576.429 379.51 575.301 379.469 574.251 379.791C572.118 380.513 570.892 382.648 568.812 383.668C568.3 383.92 567.741 384.065 567.171 384.094C566.601 384.124 566.03 384.036 565.495 383.838C564.522 383.443 563.605 382.925 562.764 382.298C561.996 381.726 561.166 381.242 560.29 380.853C559.475 380.512 558.575 380.424 557.709 380.598C556.14 381.045 554.647 381.726 553.283 382.617C552.097 383.346 550.739 383.749 549.347 383.785C548.81 383.757 548.287 383.608 547.816 383.351C547.346 383.093 546.939 382.734 546.627 382.298C546.418 382.032 546.266 381.726 546.18 381.399C546.094 381.072 546.075 380.731 546.126 380.397C546.161 380.169 546.252 379.953 546.392 379.77C546.392 379.77 546.296 379.982 546.233 380.418C546.19 381.049 546.393 381.673 546.798 382.16C547.098 382.556 547.484 382.879 547.928 383.105C548.371 383.331 548.86 383.455 549.358 383.466C550.703 383.409 552.007 382.991 553.133 382.255C554.524 381.316 556.053 380.599 557.666 380.131C558.615 379.932 559.602 380.017 560.503 380.375C561.42 380.769 562.289 381.265 563.095 381.852C563.901 382.448 564.779 382.941 565.708 383.318C566.178 383.492 566.68 383.568 567.181 383.54C567.682 383.513 568.172 383.383 568.62 383.158C570.508 382.255 571.745 380.131 574.113 379.281C575.269 378.925 576.513 378.966 577.643 379.398C578.696 379.785 579.725 380.232 580.726 380.737C581.661 381.223 582.659 381.58 583.691 381.799C584.683 381.973 585.691 382.048 586.698 382.022C590.677 381.841 594.303 381.533 597.364 381.363L604.531 380.928L606.494 380.832C606.706 380.8 606.92 380.79 607.134 380.8Z" fill="#FC5037"/>
<path d="M612.542 405.061C612.542 405.21 594.549 405.337 572.353 405.337C550.158 405.337 532.154 405.21 532.154 405.061C532.154 404.912 550.147 404.785 572.353 404.785C594.559 404.785 612.542 404.902 612.542 405.061Z" fill="#FC5037"/>
<path d="M616.147 412.528C616.147 412.677 597.673 412.804 574.902 412.804C552.131 412.804 533.647 412.677 533.647 412.528C533.647 412.379 552.12 412.252 574.902 412.252C597.684 412.252 616.147 412.379 616.147 412.528Z" fill="#FC5037"/>
<path d="M616.445 421.79C616.445 421.939 598.047 422.067 575.35 422.067C552.653 422.067 534.255 421.939 534.255 421.79C534.255 421.642 552.643 421.557 575.35 421.557C598.057 421.557 616.445 421.631 616.445 421.79Z" fill="#FC5037"/>
<path d="M561.453 447.347C560.755 447.666 560.184 448.208 559.831 448.887C559.657 449.243 559.56 449.631 559.548 450.026C559.535 450.422 559.606 450.815 559.757 451.181C559.993 451.59 560.336 451.928 560.749 452.159C561.162 452.389 561.631 452.504 562.104 452.491C562.578 452.478 563.039 452.337 563.439 452.084C563.839 451.831 564.162 451.475 564.375 451.054C564.508 450.679 564.558 450.281 564.523 449.885C564.488 449.489 564.369 449.105 564.172 448.76C563.783 448.104 563.187 447.596 562.477 447.315C562.697 447.274 562.925 447.304 563.127 447.4C563.704 447.63 564.191 448.04 564.514 448.568C564.766 448.959 564.928 449.402 564.987 449.863C565.046 450.324 565.001 450.793 564.855 451.234C564.613 451.759 564.228 452.206 563.745 452.524C563.261 452.842 562.697 453.019 562.118 453.034C561.538 453.05 560.966 452.903 560.466 452.612C559.966 452.32 559.557 451.894 559.288 451.383C559.118 450.95 559.048 450.485 559.083 450.022C559.118 449.559 559.257 449.109 559.49 448.706C559.78 448.161 560.241 447.725 560.802 447.464C561.207 447.304 561.453 447.315 561.453 447.347Z" fill="#FC5037"/>
<path d="M570.892 446.827C571.132 446.778 571.381 446.804 571.606 446.901C572.237 447.133 572.778 447.557 573.153 448.112C573.436 448.535 573.619 449.017 573.688 449.522C573.756 450.026 573.708 450.539 573.547 451.022C573.281 451.593 572.856 452.076 572.323 452.415C571.79 452.753 571.172 452.933 570.54 452.933C569.908 452.933 569.289 452.753 568.756 452.415C568.223 452.076 567.798 451.593 567.532 451.022C567.374 450.538 567.33 450.024 567.402 449.519C567.474 449.015 567.661 448.533 567.948 448.112C568.308 447.543 568.848 447.109 569.484 446.88C569.711 446.777 569.966 446.751 570.209 446.805C570.209 446.805 569.964 446.89 569.569 447.082C569.024 447.358 568.574 447.791 568.278 448.324C568.052 448.699 567.911 449.119 567.865 449.554C567.819 449.989 567.869 450.428 568.012 450.842C568.249 451.306 568.611 451.696 569.057 451.968C569.503 452.24 570.016 452.384 570.54 452.384C571.063 452.384 571.576 452.24 572.022 451.968C572.468 451.696 572.83 451.306 573.067 450.842C573.214 450.429 573.267 449.99 573.223 449.554C573.178 449.119 573.038 448.699 572.811 448.324C572.516 447.788 572.066 447.352 571.521 447.071C571.137 446.912 570.881 446.88 570.892 446.827Z" fill="#FC5037"/>
<path d="M578.976 447.304C578.292 447.619 577.73 448.149 577.377 448.813C577.199 449.159 577.098 449.539 577.08 449.927C577.062 450.315 577.126 450.703 577.27 451.064C577.475 451.485 577.8 451.837 578.203 452.077C578.607 452.317 579.072 452.433 579.542 452.413C580.011 452.434 580.477 452.318 580.882 452.081C581.287 451.843 581.614 451.494 581.824 451.075C581.965 450.711 582.029 450.322 582.01 449.933C581.992 449.543 581.892 449.162 581.718 448.813C581.364 448.149 580.802 447.619 580.118 447.304C580.338 447.276 580.562 447.317 580.758 447.421C581.314 447.675 581.774 448.099 582.07 448.632C582.299 449.028 582.438 449.469 582.476 449.924C582.515 450.379 582.453 450.838 582.294 451.266C582.041 451.777 581.65 452.207 581.165 452.508C580.679 452.809 580.119 452.968 579.547 452.968C578.975 452.968 578.415 452.809 577.93 452.508C577.444 452.207 577.053 451.777 576.801 451.266C576.642 450.838 576.579 450.379 576.618 449.924C576.657 449.469 576.795 449.028 577.025 448.632C577.321 448.099 577.78 447.675 578.337 447.421C578.532 447.317 578.756 447.276 578.976 447.304Z" fill="#FC5037"/>
<defs>
<linearGradient id="paint0_linear_813_70530" x1="0" y1="0" x2="1035" y2="605" gradientUnits="userSpaceOnUse">
<stop stop-color="#FC5037"/>
<stop offset="0.14" stop-color="#CE4835"/>
<stop offset="0.28" stop-color="#A04033"/>
<stop offset="0.52" stop-color="#723930"/>
<stop offset="0.72" stop-color="#60362F"/>
<stop offset="0.815" stop-color="#4F332F"/>
<stop offset="1" stop-color="#2D2D2D"/>
</linearGradient>
</defs>
</svg>
